<svg xmlns="http://www.w3.org/2000/svg" viewBox="0 0 800 600">
  <style>
    text {
      font-family: Arial, sans-serif;
      font-size: 14px;
    }
    .title {
      font-size: 20px;
      font-weight: bold;
    }
    .subtitle {
      font-size: 16px;
      font-weight: bold;
    }
    .axis-label {
      font-size: 14px;
    }
    .value-label {
      font-size: 12px;
    }
    
    @keyframes wave {
      0% { transform: translateX(0px); }
      100% { transform: translateX(40px); }
    }
    .wave {
      animation: wave 4s linear infinite;
    }
  </style>
  
  <!-- Background -->
  <rect width="100%" height="100%" fill="#f8f9fa"/>
  
  <!-- Title -->
  <text x="400" y="30" text-anchor="middle" class="title">Potential Barrier Shapes in HydroCell</text>
  
  <!-- Grid for 4 barrier types -->
  
  <!-- Rectangular Barrier -->
  <g transform="translate(50, 130)">
    <text x="175" y="-20" text-anchor="middle" class="subtitle">Rectangular Barrier</text>
    
    <!-- Axes -->
    <line x1="0" y1="150" x2="350" y2="150" stroke="black" stroke-width="1.5"/>
    <line x1="0" y1="0" x2="0" y2="150" stroke="black" stroke-width="1.5"/>
    
    <!-- Axis labels -->
    <text x="175" y="180" text-anchor="middle" class="axis-label">Position (nm)</text>
    <text x="-35" y="75" text-anchor="middle" transform="rotate(-90, -35, 75)" class="axis-label">Energy (eV)</text>
    
    <!-- Barrier -->
    <rect x="120" y="30" width="110" height="120" fill="#ff6666" fill-opacity="0.3" stroke="#cc3333" stroke-width="2"/>
    
    <!-- Energy level -->
    <line x1="0" y1="60" x2="350" y2="60" stroke="#339933" stroke-width="2" stroke-dasharray="5,3"/>
    <text x="335" y="55" text-anchor="end" class="value-label">E = 2.8 eV</text>
    
    <!-- Barrier height -->
    <text x="175" y="25" text-anchor="middle" class="value-label">V₀ = 3.5 eV</text>
    
    <!-- Wave function -->
    <g class="wave">
      <path d="M 0,110 Q 20,95 40,110 Q 60,125 80,110 Q 100,95 120,110" 
            fill="none" stroke="#0066cc" stroke-width="2"/>
      <!-- Decay in barrier -->
      <path d="M 120,110 Q 128,115 136,110 Q 144,105 152,110 Q 160,115 168,110 Q 176,105 184,110 Q 192,115 200,110 Q 208,105 216,110 Q 224,115 230,110" 
            fill="none" stroke="#0066cc" stroke-width="2" stroke-opacity="0.7" transform="scale(1,0.5)"/>
      <!-- Transmitted -->
      <path d="M 230,110 Q 250,105 270,110 Q 290,115 310,110 Q 330,105 350,110" 
            fill="none" stroke="#0066cc" stroke-width="2" stroke-opacity="0.5" transform="scale(1,0.3)"/>
    </g>
  </g>
  
  <!-- Gaussian Barrier -->
  <g transform="translate(400, 130)">
    <text x="175" y="-20" text-anchor="middle" class="subtitle">Gaussian Barrier</text>
    
    <!-- Axes -->
    <line x1="0" y1="150" x2="350" y2="150" stroke="black" stroke-width="1.5"/>
    <line x1="0" y1="0" x2="0" y2="150" stroke="black" stroke-width="1.5"/>
    
    <!-- Axis labels -->
    <text x="175" y="180" text-anchor="middle" class="axis-label">Position (nm)</text>
    <text x="-35" y="75" text-anchor="middle" transform="rotate(-90, -35, 75)" class="axis-label">Energy (eV)</text>
    
    <!-- Gaussian Barrier -->
    <path d="M100,150 Q110,150 120,145 Q130,135 140,120 Q150,100 175,30
              Q200,100 210,120 Q220,135 230,145 Q240,150 250,150"
          fill="#ff6666" fill-opacity="0.3" stroke="#cc3333" stroke-width="2"/>
    
    <!-- Energy level -->
    <line x1="0" y1="60" x2="350" y2="60" stroke="#339933" stroke-width="2" stroke-dasharray="5,3"/>
    <text x="335" y="55" text-anchor="end" class="value-label">E = 2.8 eV</text>
    
    <!-- Barrier height -->
    <text x="175" y="25" text-anchor="middle" class="value-label">V₀ = 3.5 eV</text>
    
    <!-- Wave function -->
    <g class="wave">
      <path d="M 0,110 Q 20,95 40,110 Q 60,125 80,110 Q 100,95 120,110" 
            fill="none" stroke="#0066cc" stroke-width="2"/>
      <!-- Variable decay through Gaussian -->
      <path d="M 120,110 Q 135,115 150,110 Q 165,105 175,110 Q 185,115 195,110 Q 210,105 230,110" 
            fill="none" stroke="#0066cc" stroke-width="2" stroke-opacity="0.7" transform="scale(1,0.6)"/>
      <!-- Transmitted -->
      <path d="M 230,110 Q 250,105 270,110 Q 290,115 310,110 Q 330,105 350,110" 
            fill="none" stroke="#0066cc" stroke-width="2" stroke-opacity="0.6" transform="scale(1,0.4)"/>
    </g>
  </g>
  
  <!-- Double Well Barrier -->
  <g transform="translate(50, 360)">
    <text x="175" y="-20" text-anchor="middle" class="subtitle">Double Well Barrier</text>
    
    <!-- Axes -->
    <line x1="0" y1="150" x2="350" y2="150" stroke="black" stroke-width="1.5"/>
    <line x1="0" y1="0" x2="0" y2="150" stroke="black" stroke-width="1.5"/>
    
    <!-- Axis labels -->
    <text x="175" y="180" text-anchor="middle" class="axis-label">Position (nm)</text>
    <text x="-35" y="75" text-anchor="middle" transform="rotate(-90, -35, 75)" class="axis-label">Energy (eV)</text>
    
    <!-- Double Well Barrier -->
    <path d="M100,150 Q110,150 120,145 Q130,130 140,110 Q145,100 150,140 
              Q155,170 160,175 Q165,180 175,140 Q185,100 190,170 
              Q195,180 200,140 Q205,100 210,110 Q220,130 230,145 Q240,150 250,150"
          fill="#ff6666" fill-opacity="0.3" stroke="#cc3333" stroke-width="2"/>
    
    <!-- Wells -->
    <path d="M145,170 Q150,200 155,170" fill="#8866ff" fill-opacity="0.3" stroke="#5533cc" stroke-width="2"/>
    <path d="M195,170 Q200,200 205,170" fill="#8866ff" fill-opacity="0.3" stroke="#5533cc" stroke-width="2"/>
    
    <!-- Energy level -->
    <line x1="0" y1="60" x2="350" y2="60" stroke="#339933" stroke-width="2" stroke-dasharray="5,3"/>
    <text x="335" y="55" text-anchor="end" class="value-label">E = 2.8 eV</text>
    
    <!-- Barrier height -->
    <text x="175" y="25" text-anchor="middle" class="value-label">V₀ = 3.5 eV</text>
    
    <!-- Wave function with hopping -->
    <g class="wave">
      <path d="M 0,110 Q 20,95 40,110 Q 60,125 80,110 Q 100,95 120,110" 
            fill="none" stroke="#0066cc" stroke-width="2"/>
      <!-- Enhanced in wells -->
      <path d="M 120,110 Q 135,115 145,110 Q 150,85 155,110 Q 165,120 175,110 Q 180,85 185,110 Q 195,120 205,110 Q 215,115 230,110" 
            fill="none" stroke="#0066cc" stroke-width="2" stroke-opacity="0.7"/>
      <!-- Transmitted -->
      <path d="M 230,110 Q 250,105 270,110 Q 290,115 310,110 Q 330,105 350,110" 
            fill="none" stroke="#0066cc" stroke-width="2" stroke-opacity="0.6" transform="scale(1,0.5)"/>
    </g>
  </g>
  
  <!-- Nafion Barrier -->
  <g transform="translate(400, 360)">
    <text x="175" y="-20" text-anchor="middle" class="subtitle">Nafion Membrane</text>
    
    <!-- Axes -->
    <line x1="0" y1="150" x2="350" y2="150" stroke="black" stroke-width="1.5"/>
    <line x1="0" y1="0" x2="0" y2="150" stroke="black" stroke-width="1.5"/>
    
    <!-- Axis labels -->
    <text x="175" y="180" text-anchor="middle" class="axis-label">Position (nm)</text>
    <text x="-35" y="75" text-anchor="middle" transform="rotate(-90, -35, 75)" class="axis-label">Energy (eV)</text>
    
    <!-- Nafion Barrier -->
    <path d="M120,30 L230,30" stroke="#cc3333" stroke-width="2"/>
    <rect x="120" y="30" width="110" height="120" fill="#ff6666" fill-opacity="0.2" stroke="none"/>
    
    <!-- Sulfonate groups (periodic wells) -->
    <path d="M120,30 L120,150" stroke="#cc3333" stroke-width="1" stroke-dasharray="2,2"/>
    <path d="M120,30 L120,90 Q123,110 126,90 L126,30" fill="#8866ff" fill-opacity="0.4" stroke="#5533cc" stroke-width="1"/>
    
    <path d="M142,30 L142,150" stroke="#cc3333" stroke-width="1" stroke-dasharray="2,2"/>
    <path d="M142,30 L142,90 Q145,110 148,90 L148,30" fill="#8866ff" fill-opacity="0.4" stroke="#5533cc" stroke-width="1"/>
    
    <path d="M164,30 L164,150" stroke="#cc3333" stroke-width="1" stroke-dasharray="2,2"/>
    <path d="M164,30 L164,90 Q167,110 170,90 L170,30" fill="#8866ff" fill-opacity="0.4" stroke="#5533cc" stroke-width="1"/>
    
    <path d="M186,30 L186,150" stroke="#cc3333" stroke-width="1" stroke-dasharray="2,2"/>
    <path d="M186,30 L186,90 Q189,110 192,90 L192,30" fill="#8866ff" fill-opacity="0.4" stroke="#5533cc" stroke-width="1"/>
    
    <path d="M208,30 L208,150" stroke="#cc3333" stroke-width="1" stroke-dasharray="2,2"/>
    <path d="M208,30 L208,90 Q211,110 214,90 L214,30" fill="#8866ff" fill-opacity="0.4" stroke="#5533cc" stroke-width="1"/>
    
    <text x="175" y="180" text-anchor="middle" class="value-label">Hydration level: 70%</text>
    
    <!-- Energy level -->
    <line x1="0" y1="60" x2="350" y2="60" stroke="#339933" stroke-width="2" stroke-dasharray="5,3"/>
    <text x="335" y="55" text-anchor="end" class="value-label">E = 2.8 eV</text>
    
    <!-- Barrier height -->
    <text x="175" y="25" text-anchor="middle" class="value-label">V₀ = 3.5 eV</text>
    
    <!-- Wave function with hops between sulfonate sites -->
    <g class="wave">
      <path d="M 0,110 Q 20,95 40,110 Q 60,125 80,110 Q 100,95 120,110" 
            fill="none" stroke="#0066cc" stroke-width="2"/>
      <!-- Hopping through nafion -->
      <path d="M 120,110 Q 123,95 126,110 Q 134,115 142,110 Q 145,95 148,110 
                Q 156,115 164,110 Q 167,95 170,110 Q 178,115 186,110 
                Q 189,95 192,110 Q 200,115 208,110 Q 211,95 214,110 Q 222,115 230,110" 
            fill="none" stroke="#0066cc" stroke-width="2" stroke-opacity="0.7"/>
      <!-- Transmitted -->
      <path d="M 230,110 Q 250,105 270,110 Q 290,115 310,110 Q 330,105 350,110" 
            fill="none" stroke="#0066cc" stroke-width="2" stroke-opacity="0.6" transform="scale(1,0.5)"/>
    </g>
  </g>
  
  <!-- Legend -->
  <g transform="translate(400, 550)">
    <line x1="0" y1="0" x2="20" y2="0" stroke="#cc3333" stroke-width="2"/>
    <rect x="0" y="-10" width="20" height="10" fill="#ff6666" fill-opacity="0.3"/>
    <text x="25" y="5" class="value-label">Potential barrier</text>
    
    <line x1="140" y1="0" x2="160" y2="0" stroke="#339933" stroke-width="2" stroke-dasharray="5,3"/>
    <text x="165" y="5" class="value-label">Electron energy</text>
    
    <line x1="270" y1="0" x2="290" y2="0" stroke="#0066cc" stroke-width="2"/>
    <text x="295" y="5" class="value-label">Electron wavefunction</text>
  </g>
</svg>